<?xml version="1.0" standalone="no"?>
<svg xmlns="http://www.w3.org/2000/svg" version="1.0" width="400" height="400" viewBox="0 0 1266.000000 1280.000000">
  <g transform="translate(0.000000,1280.000000) scale(0.100000,-0.100000)" fill="#000000" stroke="none">
    <path d="M12407 12753 c-13 -21 -50 -81 -82 -133 -304 -496 -607 -959 -843 -1290 -84 -117 -379 -510 -415 -551 -12 -15 -103 -71 -202 -124 -466 -254 -877 -527 -1169 -778 -321 -276 -729 -694 -1091 -1122 -168 -199 -143 -179 -205 -161 -64 19 -121 21 -138 4 -10 -10 -125 100 -540 514 -290 290 -540 532 -555 537 -41 16 -103 13 -140 -5 -51 -25 -6985 -6961 -7008 -7009 -23 -49 -24 -84 -4 -133 22 -51 2422 -2454 2481 -2482 48 -24 95 -25 137 -5 18 8 1606 1589 3529 3512 3175 3176 3497 3502 3504 3536 16 90 26 78 -552 657 l-534 535 1 75 c1 41 4 85 7 97 5 16 75 64 227 159 587 364 1110 730 1475 1032 208 173 552 527 809 835 71 84 79 90 180 138 271 129 645 279 981 394 105 35 195 67 200 70 4 3 -9 39 -31 80 -21 42 -42 94 -45 116 -5 30 -11 38 -23 35 -9 -3 -51 -14 -93 -26 -142 -39 -493 -169 -710 -264 -21 -9 -38 -14 -38 -11 0 3 33 50 73 103 192 255 553 779 779 1132 156 244 278 444 278 457 0 5 -24 17 -52 26 -29 9 -77 32 -106 52 -30 19 -56 35 -58 35 -2 0 -14 -17 -27 -37z m-1856 -2572 c-100 -126 -516 -479 -946 -802 -113 -85 -430 -317 -495 -362 -41 -29 247 255 405 398 354 322 612 521 945 731 63 40 117 73 118 73 2 1 -10 -16 -27 -38z m-2594 -2128 c51 -39 95 -87 126 -135 16 -25 16 -31 3 -60 -33 -73 -86 -108 -166 -108 -173 0 -235 230 -86 321 45 27 68 24 123 -18z"/>
  </g>
</svg>