<?xml version="1.0"?>
<svg xmlns="http://www.w3.org/2000/svg" xmlns:xlink="http://www.w3.org/1999/xlink" id="svg" width="400" height="400" viewBox="40,60,300,300">
  <g id="svgg">
    <path id="path0" d="M130.469 83.401 C 130.297 83.421,129.711 83.488,129.167 83.550 C 115.291 85.136,103.454 96.106,100.629 110.000 C 99.970 113.241,100.000 111.759,100.000 140.495 L 100.000 166.667 125.000 166.667 L 150.000 166.667 150.000 258.333 C 150.000 308.750,150.027 350.000,150.061 350.000 C 150.112 350.000,151.028 349.332,152.188 348.449 C 152.331 348.340,152.799 347.989,153.229 347.668 C 153.659 347.347,154.128 346.996,154.271 346.887 C 154.414 346.778,154.883 346.426,155.313 346.106 C 155.742 345.785,156.211 345.433,156.354 345.324 C 156.497 345.215,156.966 344.864,157.396 344.543 C 157.826 344.222,158.294 343.871,158.438 343.762 C 158.581 343.653,159.049 343.301,159.479 342.981 C 159.909 342.660,160.378 342.308,160.521 342.199 C 160.664 342.090,161.133 341.739,161.563 341.418 C 161.992 341.097,162.461 340.746,162.604 340.637 C 162.747 340.528,163.216 340.176,163.646 339.856 C 164.076 339.535,164.544 339.183,164.688 339.074 C 164.831 338.965,165.299 338.614,165.729 338.293 C 166.159 337.972,166.628 337.621,166.771 337.512 C 166.914 337.403,167.383 337.051,167.813 336.731 C 168.242 336.410,168.711 336.058,168.854 335.949 C 168.997 335.840,169.466 335.489,169.896 335.168 C 170.326 334.847,170.794 334.496,170.938 334.387 C 171.081 334.278,171.549 333.926,171.979 333.606 C 172.409 333.285,172.878 332.933,173.021 332.824 C 173.164 332.715,173.633 332.364,174.063 332.043 C 174.492 331.722,174.961 331.371,175.104 331.262 C 175.247 331.153,175.716 330.801,176.146 330.481 C 176.576 330.160,177.044 329.808,177.188 329.699 C 177.331 329.590,177.799 329.239,178.229 328.918 C 178.659 328.597,179.128 328.246,179.271 328.137 C 179.414 328.028,179.883 327.676,180.313 327.356 C 180.742 327.035,181.211 326.683,181.354 326.574 C 181.497 326.465,181.966 326.114,182.396 325.793 C 182.826 325.472,183.294 325.121,183.438 325.012 C 183.581 324.903,184.049 324.551,184.479 324.231 C 184.909 323.910,185.378 323.558,185.521 323.449 C 185.664 323.340,186.133 322.989,186.563 322.668 C 186.992 322.347,187.461 321.996,187.604 321.887 C 187.747 321.778,188.216 321.426,188.646 321.106 C 189.076 320.785,189.544 320.433,189.688 320.324 C 189.831 320.215,190.299 319.864,190.729 319.543 C 191.159 319.222,191.628 318.871,191.771 318.762 C 191.914 318.653,192.383 318.301,192.813 317.981 C 193.242 317.660,193.711 317.308,193.854 317.199 C 193.997 317.090,194.466 316.739,194.896 316.418 C 195.326 316.097,195.794 315.746,195.938 315.637 C 196.081 315.528,196.549 315.176,196.979 314.856 C 197.409 314.535,197.878 314.183,198.021 314.074 C 198.164 313.965,198.633 313.614,199.063 313.293 C 199.492 312.972,199.961 312.621,200.104 312.512 C 200.247 312.403,200.716 312.051,201.146 311.731 C 201.576 311.410,202.044 311.058,202.188 310.949 C 202.331 310.840,202.799 310.489,203.229 310.168 C 203.659 309.847,204.128 309.496,204.271 309.387 C 204.414 309.278,204.883 308.926,205.313 308.606 C 205.742 308.285,206.211 307.933,206.354 307.824 C 206.497 307.715,206.966 307.364,207.396 307.043 C 207.826 306.722,208.294 306.371,208.438 306.262 C 208.581 306.153,209.049 305.801,209.479 305.481 C 209.909 305.160,210.378 304.808,210.521 304.699 C 210.664 304.590,211.133 304.239,211.563 303.918 C 211.992 303.597,212.461 303.246,212.604 303.137 C 212.747 303.028,213.216 302.676,213.646 302.356 C 214.076 302.035,214.544 301.683,214.688 301.574 C 216.920 299.875,216.413 299.875,218.646 301.574 C 218.789 301.683,219.258 302.035,219.688 302.356 C 220.117 302.676,220.586 303.028,220.729 303.137 C 220.872 303.246,221.341 303.597,221.771 303.918 C 222.201 304.239,222.669 304.590,222.813 304.699 C 222.956 304.808,223.424 305.160,223.854 305.481 C 224.284 305.801,224.753 306.153,224.896 306.262 C 225.039 306.371,225.508 306.722,225.938 307.043 C 226.367 307.364,226.836 307.715,226.979 307.824 C 227.122 307.933,227.591 308.285,228.021 308.606 C 228.451 308.926,228.919 309.278,229.063 309.387 C 229.206 309.496,229.674 309.847,230.104 310.168 C 230.534 310.489,231.003 310.840,231.146 310.949 C 231.289 311.058,231.758 311.410,232.188 311.731 C 232.617 312.051,233.086 312.403,233.229 312.512 C 233.372 312.621,233.841 312.972,234.271 313.293 C 234.701 313.614,235.169 313.965,235.313 314.074 C 235.456 314.183,235.924 314.535,236.354 314.856 C 236.784 315.176,237.253 315.528,237.396 315.637 C 237.539 315.746,238.008 316.097,238.438 316.418 C 238.867 316.739,239.336 317.090,239.479 317.199 C 239.622 317.308,240.091 317.660,240.521 317.981 C 240.951 318.301,241.419 318.653,241.563 318.762 C 241.706 318.871,242.174 319.222,242.604 319.543 C 243.034 319.864,243.503 320.215,243.646 320.324 C 243.789 320.433,244.258 320.785,244.688 321.106 C 245.117 321.426,245.586 321.778,245.729 321.887 C 245.872 321.996,246.341 322.347,246.771 322.668 C 247.201 322.989,247.669 323.340,247.813 323.449 C 247.956 323.558,248.424 323.910,248.854 324.231 C 249.284 324.551,249.753 324.903,249.896 325.012 C 250.039 325.121,250.508 325.472,250.938 325.793 C 251.367 326.114,251.836 326.465,251.979 326.574 C 252.122 326.683,252.591 327.035,253.021 327.356 C 253.451 327.676,253.919 328.028,254.063 328.137 C 254.206 328.246,254.674 328.597,255.104 328.918 C 255.534 329.239,256.003 329.590,256.146 329.699 C 256.289 329.808,256.758 330.160,257.188 330.481 C 257.617 330.801,258.086 331.153,258.229 331.262 C 258.372 331.371,258.841 331.722,259.271 332.043 C 259.701 332.364,260.169 332.715,260.313 332.824 C 260.456 332.933,260.924 333.285,261.354 333.606 C 261.784 333.926,262.253 334.278,262.396 334.387 C 262.539 334.496,263.008 334.847,263.438 335.168 C 263.867 335.489,264.336 335.840,264.479 335.949 C 264.622 336.058,265.091 336.410,265.521 336.731 C 265.951 337.051,266.419 337.403,266.563 337.512 C 266.706 337.621,267.174 337.972,267.604 338.293 C 268.034 338.614,268.503 338.965,268.646 339.074 C 268.789 339.183,269.258 339.535,269.688 339.856 C 270.117 340.176,270.586 340.528,270.729 340.637 C 270.872 340.746,271.341 341.097,271.771 341.418 C 272.201 341.739,272.669 342.090,272.813 342.199 C 272.956 342.308,273.424 342.660,273.854 342.981 C 274.284 343.301,274.753 343.653,274.896 343.762 C 275.039 343.871,275.508 344.222,275.938 344.543 C 276.367 344.864,276.836 345.215,276.979 345.324 C 277.122 345.433,277.591 345.785,278.021 346.106 C 278.451 346.426,278.919 346.778,279.063 346.887 C 279.206 346.996,279.674 347.347,280.104 347.668 C 280.534 347.989,281.003 348.340,281.146 348.449 C 282.306 349.332,283.221 350.000,283.272 350.000 C 283.306 350.000,283.333 296.973,283.332 232.161 C 283.331 99.822,283.409 112.947,282.600 109.479 C 282.419 108.706,282.249 107.956,282.222 107.813 C 282.194 107.669,282.132 107.458,282.083 107.344 C 282.034 107.229,281.870 106.737,281.719 106.250 C 281.567 105.763,281.402 105.271,281.352 105.156 C 281.302 105.042,281.112 104.573,280.930 104.115 C 280.522 103.087,279.158 100.350,278.684 99.607 C 278.491 99.305,278.333 99.042,278.333 99.022 C 278.333 98.973,277.481 97.705,277.119 97.215 C 271.583 89.722,264.192 85.200,254.896 83.618 L 253.594 83.396 192.188 83.380 C 158.414 83.371,130.641 83.380,130.469 83.401 M150.000 125.000 L 150.000 150.000 133.333 150.000 L 116.667 150.000 116.670 133.620 C 116.673 116.291,116.707 114.763,117.127 112.686 C 118.608 105.371,124.264 100.583,131.979 100.111 C 132.695 100.067,137.043 100.024,141.641 100.015 L 150.000 100.000 150.000 125.000 " stroke="none" fill="#000000" fill-rule="evenodd"/>
  </g>
</svg>