<?xml version="1.0" standalone="no"?>
<svg xmlns="http://www.w3.org/2000/svg" version="1.0" width="400" height="400" viewBox="0 0 603.000000 1280.000000">
  <g transform="translate(0.000000,1280.000000) scale(0.100000,-0.100000)" fill="#000000" stroke="none">
    <path d="M2820 12194 c-303 -39 -584 -155 -828 -341 -107 -83 -277 -264 -354 -379 -167 -248 -268 -540 -288 -832 -4 -65 -7 -1260 -6 -2658 1 -2732 -2 -2584 51 -2564 28 11 45 -4 45 -42 0 -18 -5 -28 -15 -28 -8 0 -15 9 -15 20 0 21 -24 27 -50 10 -13 -8 -14 -279 -13 -2187 1 -2171 1 -2178 21 -2236 54 -153 150 -249 308 -309 l59 -23 1235 -2 c748 -1 1265 2 1310 8 87 11 193 58 256 113 52 44 104 122 135 201 l24 60 3 4770 c1 3238 -1 4808 -8 4890 -19 222 -69 403 -164 600 -223 461 -660 802 -1157 904 -201 42 -363 49 -549 25z"/>
  </g>
</svg>